<svg width="816.5651235580444" height="406.9203040599823" xmlns="http://www.w3.org/2000/svg" version="1.1">
 <g>
  <title>Layer 1</title>
  <g id="svg_1">
   <g id="Layer_1" data-name="Layer 1">
    <g opacity="0.3" id="svg_2">
     <rect x="328.342" y="86.822" width="42" height="246.5" stroke-width="8" stroke="#2d2d2d" stroke-linecap="round" stroke-linejoin="round" fill="#2d2d2d" id="svg_3"/>
     <rect x="322.675" y="333.161" width="53.333" height="30" stroke-width="8" stroke="#2d2d2d" stroke-linecap="round" stroke-linejoin="round" fill="#2d2d2d" id="svg_4"/>
     <path d="m328.342,363.161l42,0a0,0 0 0 1 0,0l0,17.168a8.671,8.671 0 0 1 -8.671,8.671l-24.659,0a8.671,8.671 0 0 1 -8.671,-8.671l0,-17.168a0,0 0 0 1 0.001,0z" fill="#2d2d2d" stroke="#2d2d2d" stroke-linecap="round" stroke-linejoin="round" stroke-width="8" id="svg_5"/>
     <polygon points="370.3420104980469,86.82199096679688 328.3420104980469,86.82199096679688 349.3420104980469,20.3330078125 370.3420104980469,86.82199096679688 " fill="#2d2d2d" stroke="#2d2d2d" stroke-linecap="round" stroke-linejoin="round" stroke-width="8" id="svg_6"/>
    </g>
    <g opacity="0.3" id="svg_7">
     <rect x="462.893" y="180.499" width="37.333" height="212" stroke-width="8" stroke="#2d2d2d" stroke-linecap="round" stroke-linejoin="round" fill="#2d2d2d" id="svg_8"/>
     <rect x="457.56" y="37.499" width="48" height="143" stroke-width="8" stroke="#2d2d2d" stroke-linecap="round" stroke-linejoin="round" fill="#2d2d2d" id="svg_9"/>
     <path d="m481.56,16.5l0,0a18.667,18.667 0 0 1 18.667,18.667l0,2.333a0,0 0 0 1 0,0l-37.334,0a0,0 0 0 1 0,0l0,-2.335a18.667,18.667 0 0 1 18.667,-18.665z" fill="#2d2d2d" stroke="#2d2d2d" stroke-linecap="round" stroke-linejoin="round" stroke-width="8" id="svg_10"/>
     <line x1="443.712" y1="59.871" x2="443.712" y2="149.196" fill="#2d2d2d" stroke="#2d2d2d" stroke-linecap="round" stroke-linejoin="round" stroke-width="8" id="svg_11"/>
     <line x1="457.557" y1="74.332" x2="443.712" y2="74.332" fill="#2d2d2d" stroke="#2d2d2d" stroke-linecap="round" stroke-linejoin="round" stroke-width="8" id="svg_12"/>
     <path d="m495.81,392.5a14.251,14.251 0 1 1 -28.5,0l28.5,0z" fill="#2d2d2d" stroke="#2d2d2d" stroke-linecap="round" stroke-linejoin="round" stroke-width="8" id="svg_13"/>
    </g>
    <rect x="453.893" y="170.499" width="37.333" height="212" fill="#00b3c6" id="svg_14"/>
    <rect x="477.667" y="170.499" width="13.56" height="212" fill="#00b3c6" opacity="0.5" id="svg_15"/>
    <rect x="453.893" y="170.499" width="13.416" height="212" fill="#00b3c6" opacity="0.35" id="svg_16"/>
    <path d="m491.227,386.5l-37.334,0a4,4 0 0 1 -4,-4l0,-212a4,4 0 0 1 4,-4l37.334,0a4,4 0 0 1 4,4l0,212a4,4 0 0 1 -4,4zm-33.334,-8l29.334,0l0,-204l-29.334,0l0,204z" fill="#330e00" id="svg_17"/>
    <rect x="448.56" y="27.499" width="48" height="143" fill="#565656" id="svg_18"/>
    <rect x="448.56" y="27.499" width="14.333" height="143" fill="#565656" opacity="0.27" id="svg_19"/>
    <rect x="481.56" y="27.499" width="14.333" height="143" fill="#565656" opacity="0.27" id="svg_20"/>
    <path d="m496.56,174.5l-48,0a4,4 0 0 1 -4,-4l0,-143a4,4 0 0 1 4,-4l48,0a4,4 0 0 1 4,4l0,143a4,4 0 0 1 -4,4zm-44,-8l40,0l0,-135l-40,0l0,135z" fill="#330e00" id="svg_21"/>
    <path d="m472.56,6.5l0,0a18.667,18.667 0 0 1 18.667,18.667l0,2.333a0,0 0 0 1 0,0l-37.334,0a0,0 0 0 1 0,0l0,-2.335a18.667,18.667 0 0 1 18.667,-18.665z" fill="#00b3c6" id="svg_22"/>
    <path d="m491.227,31.5l-37.334,0a4,4 0 0 1 -4,-4l0,-2.335a22.667,22.667 0 0 1 45.334,0l0,2.335a4,4 0 0 1 -4,4zm-33.241,-8l29.147,0a14.668,14.668 0 0 0 -29.147,0z" fill="#330e00" id="svg_23"/>
    <path d="m434.712,143.2a4,4 0 0 1 -4,-4l0,-89.328a4,4 0 0 1 8,0l0,89.328a4,4 0 0 1 -4,4z" fill="#330e00" id="svg_24"/>
    <path d="m448.557,68.333l-13.845,0a4,4 0 0 1 0,-8l13.845,0a4,4 0 0 1 0,8z" fill="#330e00" id="svg_25"/>
    <path d="m486.81,382.5a14.251,14.251 0 1 1 -28.5,0l28.5,0z" fill="#565656" id="svg_26"/>
    <path d="m472.56,400.75a18.271,18.271 0 0 1 -18.25,-18.25a4,4 0 0 1 4,-4l28.5,0a4,4 0 0 1 4,4a18.272,18.272 0 0 1 -18.25,18.25zm-9.438,-14.25a10.25,10.25 0 0 0 18.875,0l-18.875,0z" fill="#330e00" id="svg_27"/>
    <rect x="317.342" y="74.822" width="42" height="246.5" fill="#ff1f1f" id="svg_28"/>
    <path d="m359.341,325.322l-42,0a4,4 0 0 1 -4,-4l0,-246.5a4,4 0 0 1 4,-4l42,0a4,4 0 0 1 4,4l0,246.5a4,4 0 0 1 -4,4zm-38,-8l34,0l0,-238.5l-34,0l0,238.5z" fill="#330e00" id="svg_29"/>
    <path d="m345.663,325.322l-14.642,0a4,4 0 0 1 -4,-4l0,-246.5a4,4 0 0 1 4,-4l14.642,0a4,4 0 0 1 4,4l0,246.5a4,4 0 0 1 -4,4zm-10.642,-8l6.642,0l0,-238.5l-6.642,0l0,238.5z" fill="#330e00" id="svg_30"/>
    <rect x="311.675" y="321.161" width="53.333" height="30" fill="#fdd2a7" id="svg_31"/>
    <rect x="349.342" y="321.161" width="15.667" height="30" fill="#fdd2a7" opacity="0.5" id="svg_32"/>
    <rect x="311.675" y="321.161" width="14.325" height="30" fill="#fdd2a7" id="svg_33"/>
    <path d="m365.008,355.161l-53.333,0a4,4 0 0 1 -4,-4l0,-30a4,4 0 0 1 4,-4l53.333,0a4,4 0 0 1 4,4l0,30a4,4 0 0 1 -4,4zm-49.333,-8l45.333,0l0,-22l-45.333,0l0,22z" fill="#330e00" id="svg_34"/>
    <path d="m317.342,351.161l42,0a0,0 0 0 1 0,0l0,17.168a8.671,8.671 0 0 1 -8.671,8.671l-24.659,0a8.671,8.671 0 0 1 -8.671,-8.671l0,-17.168a0,0 0 0 1 0.001,0z" fill="#3babff" id="svg_35"/>
    <path d="m350.671,381l-24.659,0a12.686,12.686 0 0 1 -12.671,-12.671l0,-17.168a4,4 0 0 1 4,-4l42,0a4,4 0 0 1 4,4l0,17.168a12.686,12.686 0 0 1 -12.67,12.671zm-29.33,-25.839l0,13.168a4.677,4.677 0 0 0 4.671,4.671l24.659,0a4.676,4.676 0 0 0 4.67,-4.671l0,-13.168l-34,0z" fill="#330e00" id="svg_36"/>
    <polygon points="359.3420104980469,74.82199096679688 317.3420104980469,74.82199096679688 338.3420104980469,8.3330078125 359.3420104980469,74.82199096679688 " fill="#fdd2a7" id="svg_37"/>
    <path d="m359.341,78.822l-42,0a4,4 0 0 1 -3.814,-5.2l21,-66.488a4,4 0 0 1 7.629,0l21,66.488a4,4 0 0 1 -3.815,5.2zm-36.542,-8l31.084,0l-15.542,-49.207l-15.542,49.207z" fill="#330e00" id="svg_38"/>
    <polygon points="338.34100341796875,8.3330078125 329.44500732421875,36.498992919921875 347.23699951171875,36.498992919921875 338.34100341796875,8.3330078125 " fill="#330e00" id="svg_39"/>
    <path d="m87.652,218.991c-14.765,-20.859 -38.3,-29.581 -52.573,-19.48s-13.871,35.2 0.894,56.059c12.9,18.22 32.486,27.177 46.747,22.421l61.507,98.116c5.242,8.213 13.391,9.47 19.493,5.151s7.627,-12.423 1.624,-20.1l-72.088,-90.627c9.227,-11.866 7.292,-33.319 -5.604,-51.54z" fill="#2d2d2d" stroke="#2d2d2d" stroke-linecap="round" stroke-linejoin="round" stroke-width="8" opacity="0.3" id="svg_40"/>
    <circle cx="143.932" cy="196.315" r="126" fill="#2d2d2d" stroke="#2d2d2d" stroke-linecap="round" stroke-linejoin="round" stroke-width="8" opacity="0.3" id="svg_41"/>
    <circle cx="131.932" cy="184.315" r="126" fill="#fff" id="svg_42"/>
    <path d="m80.256,248.534c9.227,-11.869 7.292,-33.322 -5.6,-51.543c-14.765,-20.859 -66.444,15.719 -51.679,36.579c12.9,18.22 32.486,27.177 46.747,22.421l29.822,47.573a125.793,125.793 0 0 0 28.143,4.6l-47.433,-59.63z" fill="silver" stroke="silver" stroke-linecap="round" stroke-linejoin="round" stroke-width="8" id="svg_43"/>
    <path d="m214.216,181.315l31.984,0a8.016,8.016 0 0 1 8.016,8.016l0,15.969a8.016,8.016 0 0 1 -8.016,8.016l-31.984,0a0,0 0 0 1 0,0l0,-32a0,0 0 0 1 0,-0.001z" fill="silver" stroke="silver" stroke-linecap="round" stroke-linejoin="round" stroke-width="8" id="svg_44"/>
    <circle cx="134.932" cy="197.315" r="79" fill="silver" stroke="silver" stroke-linecap="round" stroke-linejoin="round" stroke-width="8" id="svg_45"/>
    <path d="m131.932,314.315a130,130 0 1 1 130,-130a130.147,130.147 0 0 1 -130,130zm0,-252a122,122 0 1 0 122,122a122.138,122.138 0 0 0 -122,-122z" fill="#330e00" id="svg_46"/>
    <path d="m71.652,206.991c-14.765,-20.859 -38.3,-29.581 -52.573,-19.48s-13.871,35.2 0.894,56.059c12.9,18.22 32.486,27.177 46.747,22.421l61.507,98.116c5.242,8.213 13.391,9.47 19.493,5.151s7.627,-12.423 1.624,-20.1l-72.088,-90.627c9.227,-11.866 7.292,-33.319 -5.604,-51.54z" fill="#fff" id="svg_47"/>
    <path d="m78.386,254.673c2.934,-12.964 -3.055,-28.6 -12.228,-43.793c-5.357,-8.875 -10.092,-16.036 -17.287,-21.094c0.002,25.894 11.905,48.476 29.515,64.887z" fill="silver" stroke="silver" stroke-linecap="round" stroke-linejoin="round" stroke-width="8" id="svg_48"/>
    <path d="m34.07,245.6a1.994,1.994 0 0 1 -1.471,-0.645a57.563,57.563 0 0 1 -4.644,-5.74c-6.53,-9.225 -10.2,-20.314 -9.805,-29.662a2,2 0 0 1 4,0.166c-0.354,8.5 3.038,18.658 9.074,27.185a53.548,53.548 0 0 0 4.32,5.34a2,2 0 0 1 -1.47,3.356l-0.004,0z" fill="#330e00" id="svg_49"/>
    <path d="m140.345,375.691a15.852,15.852 0 0 1 -3.055,-0.3c-4.867,-0.954 -9.283,-4.2 -12.435,-9.135l-59.955,-95.633c-15.856,3.368 -35.222,-6.415 -48.195,-24.742c-16.015,-22.627 -15.988,-50.276 0.06,-61.635s42.133,-2.192 58.149,20.435l0,0c12.972,18.326 15.762,39.841 7.312,53.678l70.245,88.311c3.63,4.641 5.221,9.884 4.5,14.791a16.445,16.445 0 0 1 -6.945,11.061a16.735,16.735 0 0 1 -9.681,3.169zm-73.625,-113.7a4,4 0 0 1 3.389,1.875l61.507,98.116c1.974,3.093 4.473,5.026 7.211,5.562a9.015,9.015 0 0 0 10.234,-7.243c0.4,-2.761 -0.587,-5.761 -2.868,-8.677l-72.067,-90.6a4,4 0 0 1 -0.027,-4.945c8.309,-10.688 5.907,-30.36 -5.712,-46.776l0,0c-13.467,-19.025 -34.549,-27.337 -47,-18.526s-11.619,31.457 1.848,50.484c11.619,16.414 29.376,25.223 42.217,20.936a4.02,4.02 0 0 1 1.268,-0.206z" fill="#330e00" id="svg_50"/>
    <path d="m204.63,168.315l38.57,0a8.016,8.016 0 0 1 8.016,8.016l0,15.969a8.016,8.016 0 0 1 -8.016,8.016l-38.57,0a0,0 0 0 1 0,0l0,-32a0,0 0 0 1 0,-0.001z" fill="#fff" id="svg_51"/>
    <path d="m243.2,204.315l-38.57,0a4,4 0 0 1 -4,-4l0,-32a4,4 0 0 1 4,-4l38.57,0a12.03,12.03 0 0 1 12.016,12.016l0,15.969a12.029,12.029 0 0 1 -12.016,12.015zm-34.57,-8l34.57,0a4.02,4.02 0 0 0 4.016,-4.015l0,-15.969a4.02,4.02 0 0 0 -4.016,-4.016l-34.57,0l0,24z" fill="#330e00" id="svg_52"/>
    <circle cx="131.932" cy="184.315" r="79" fill="#fff" id="svg_53"/>
    <path d="m131.932,267.315a83,83 0 1 1 83,-83a83.094,83.094 0 0 1 -83,83zm0,-158a75,75 0 1 0 75,75a75.085,75.085 0 0 0 -75,-75z" fill="#330e00" id="svg_54"/>
    <circle cx="131.932" cy="184.315" r="63.315" fill="#330e00" id="svg_55"/>
    <path d="m132.077,239.167a53.738,53.738 0 0 1 -47.791,-29.059a2.5,2.5 0 1 1 4.435,-2.308a48.84,48.84 0 1 0 49.317,-70.956a2.5,2.5 0 0 1 0.607,-4.963a53.844,53.844 0 0 1 -6.568,107.286z" fill="#fff" id="svg_56"/>
    <path d="m167.154,179.853a2.5,2.5 0 0 1 -2.384,-1.749a40.75,40.75 0 0 0 -30.644,-27.669a2.5,2.5 0 0 1 1,-4.9a45.755,45.755 0 0 1 34.413,31.065a2.5,2.5 0 0 1 -2.385,3.252l0,0.001z" fill="#fff" id="svg_57"/>
    <path d="m467.667,367.333a3,3 0 0 1 -3,-3l0,-80.833a3,3 0 0 1 6,0l0,80.834a3,3 0 0 1 -3,2.999z" fill="#330e00" id="svg_58"/>
    <path d="m491.227,386.5l-37.334,0a4,4 0 0 1 -4,-4l0,-212a4,4 0 0 1 4,-4l37.334,0a4,4 0 0 1 4,4l0,212a4,4 0 0 1 -4,4zm-33.334,-8l29.334,0l0,-204l-29.334,0l0,204z" fill="#330e00" id="svg_59"/>
    <path d="m496.56,174.5l-48,0a4,4 0 0 1 -4,-4l0,-143a4,4 0 0 1 4,-4l48,0a4,4 0 0 1 4,4l0,143a4,4 0 0 1 -4,4zm-44,-8l40,0l0,-135l-40,0l0,135z" fill="#330e00" id="svg_60"/>
    <path d="m491.227,31.5l-37.334,0a4,4 0 0 1 -4,-4l0,-2.335a22.667,22.667 0 0 1 45.334,0l0,2.335a4,4 0 0 1 -4,4zm-33.241,-8l29.147,0a14.668,14.668 0 0 0 -29.147,0z" fill="#330e00" id="svg_61"/>
    <path d="m434.712,143.2a4,4 0 0 1 -4,-4l0,-89.328a4,4 0 0 1 8,0l0,89.328a4,4 0 0 1 -4,4z" fill="#330e00" id="svg_62"/>
    <path d="m448.557,68.333l-13.845,0a4,4 0 0 1 0,-8l13.845,0a4,4 0 0 1 0,8z" fill="#330e00" id="svg_63"/>
    <path d="m472.56,400.75a18.271,18.271 0 0 1 -18.25,-18.25a4,4 0 0 1 4,-4l28.5,0a4,4 0 0 1 4,4a18.272,18.272 0 0 1 -18.25,18.25zm-9.438,-14.25a10.25,10.25 0 0 0 18.875,0l-18.875,0z" fill="#330e00" id="svg_64"/>
    <g opacity="0.3" id="svg_65">
     <rect x="1106.83699" y="-277.78299" width="96" height="308" rx="18" stroke-width="8" stroke="#2d2d2d" stroke-linecap="round" stroke-linejoin="round" fill="#2d2d2d" id="svg_66" transform="rotate(36 365.624 -662.921)"/>
     <rect x="565.135" y="43.62" width="96" height="308" rx="18" stroke-width="8" stroke="#2d2d2d" stroke-linecap="round" stroke-linejoin="round" fill="#2d2d2d" id="svg_67"/>
     <rect x="771.801" y="-130.77001" width="96" height="308" rx="18" stroke-width="8" stroke="#2d2d2d" stroke-linecap="round" stroke-linejoin="round" fill="#2d2d2d" id="svg_68" transform="rotate(16 68.373 -489.268)"/>
    </g>
    <rect x="1091.47701" y="-293.89999" width="96" height="308" rx="18" fill="#fff" id="svg_69" transform="rotate(36 355.264 -663.038)"/>
    <path d="m626.516,370.79a21.883,21.883 0 0 1 -12.9,-4.193l0,0l-48.541,-35.268a22.025,22.025 0 0 1 -4.875,-30.729l159.882,-220.053a22.026,22.026 0 0 1 30.73,-4.867l48.542,35.267a22.025,22.025 0 0 1 4.867,30.729l-159.878,220.053a21.988,21.988 0 0 1 -17.827,9.061zm-8.2,-10.666a14,14 0 0 0 19.556,-3.1l159.876,-220.05a14.016,14.016 0 0 0 -3.1,-19.555l-48.542,-35.267a14.016,14.016 0 0 0 -19.554,3.1l-159.875,220.048a14.015,14.015 0 0 0 3.1,19.554l48.541,35.268l-0.002,0.002z" fill="#330e00" id="svg_70"/>
    <path d="m695.18,288.948a3.988,3.988 0 0 1 -2.349,-0.763l-77.665,-56.427a4,4 0 0 1 -0.885,-5.588l105.8,-145.623a22.025,22.025 0 0 1 30.73,-4.867l48.542,35.267a22.025,22.025 0 0 1 4.867,30.729l-105.801,145.624a4,4 0 0 1 -3.239,1.648zm-72.08,-61.311l71.2,51.724l103.45,-142.387a14.016,14.016 0 0 0 -3.1,-19.555l-48.541,-35.267a14.017,14.017 0 0 0 -19.554,3.1l-103.455,142.385z" fill="#330e00" id="svg_71"/>
    <path d="m1136.64301,-331.29099l60,0a18,18 0 0 1 18,18l0,48a0,0 0 0 1 0,0l-96,0a0,0 0 0 1 0,0l0,-48a18,18 0 0 1 18,-18z" fill="#8c6239" id="svg_72" transform="rotate(36 311.308 -723.538)"/>
    <path d="m772.768,182.159a3.985,3.985 0 0 1 -2.349,-0.765l-77.666,-56.427a4,4 0 0 1 -0.885,-5.587l28.214,-38.833a22.026,22.026 0 0 1 30.73,-4.867l48.542,35.267a22.025,22.025 0 0 1 4.867,30.729l-28.214,38.833a4,4 0 0 1 -3.239,1.65zm-72.077,-61.313l71.195,51.725l25.862,-35.6a14.016,14.016 0 0 0 -3.1,-19.555l-48.542,-35.267a14.017,14.017 0 0 0 -19.554,3.1l-25.861,35.597z" fill="#330e00" id="svg_73"/>
    <rect x="1089.00701" y="-158.50099" width="96" height="66" fill="#42210b" id="svg_74" transform="rotate(36 359.26 -657.538)"/>
    <rect x="1103.825" y="-244.89599" width="96" height="66" fill="#603813" id="svg_75" transform="rotate(36 335.284 -690.538)"/>
    <path d="m733.977,235.554a4.006,4.006 0 0 1 -2.352,-0.764l-77.666,-56.428a4,4 0 0 1 -0.885,-5.587l38.794,-53.395a4,4 0 0 1 5.588,-0.885l77.666,56.427a4,4 0 0 1 0.885,5.587l-38.794,53.4a4,4 0 0 1 -2.61,1.6a4.126,4.126 0 0 1 -0.626,0.045zm-72.077,-61.313l71.195,51.726l34.092,-46.924l-71.195,-51.725l-34.092,46.923z" fill="#330e00" id="svg_76"/>
    <path d="m695.18,288.948a3.99,3.99 0 0 1 -2.349,-0.763l-77.665,-56.427a4,4 0 0 1 -0.885,-5.588l38.793,-53.395a4,4 0 0 1 5.588,-0.885l77.666,56.427a4,4 0 0 1 0.885,5.588l-38.794,53.395a4,4 0 0 1 -3.239,1.648zm-72.08,-61.311l71.2,51.724l34.092,-46.923l-71.192,-51.725l-34.1,46.924z" fill="#330e00" id="svg_77"/>
    <path d="m585.241,324.616a12,12 0 1 1 9.725,-4.942l0,0a12,12 0 0 1 -9.725,4.942zm6.488,-7.293l0,0zm-6.463,-8.7a4.127,4.127 0 0 0 -0.635,0.05a3.985,3.985 0 1 0 0.635,-0.05z" fill="#330e00" id="svg_78"/>
    <path d="m722.714,58.733l-57.675,-16.533a18,18 0 0 0 -22.265,12.341l-74.974,261.459a18,18 0 0 0 12.341,22.264l52.608,-3.013c0.465,0.133 4.919,0.276 5.385,0.37l4.783,0l7.68,-0.827a20.13,20.13 0 0 0 17.221,-14.567l67.237,-239.227a18,18 0 0 0 -12.341,-22.267z" fill="#2d2d2d" stroke="#2d2d2d" stroke-linecap="round" stroke-linejoin="round" stroke-width="8" opacity="0.3" id="svg_79"/>
    <rect x="762.197" y="-146.01199" width="96" height="308" rx="18" fill="#fff" id="svg_80" transform="rotate(16 63.769 -488.51)"/>
    <path d="m635.812,355.509a22.051,22.051 0 0 1 -6.1,-0.863l-57.672,-16.538a22,22 0 0 1 -15.084,-27.208l74.974,-261.466a22,22 0 0 1 27.211,-15.084l57.675,16.538a22,22 0 0 1 15.084,27.212l-74.973,261.462a22.033,22.033 0 0 1 -21.115,15.947zm17.245,-314.018a14.022,14.022 0 0 0 -13.438,10.148l-74.973,261.461a14,14 0 0 0 9.6,17.317l57.676,16.538l0,0a14,14 0 0 0 17.316,-9.6l74.973,-261.455a14,14 0 0 0 -9.6,-17.317l-57.675,-16.543a14.071,14.071 0 0 0 -3.879,-0.549z" fill="#330e00" id="svg_81"/>
    <path d="m657.71654,38.37509l57.66,16.56a17.298,17.298 0 0 1 12.33,22.266l-13.248,46.128a0,0 0 0 1 0,0l-92.256,-26.496a0,0 0 0 1 0,0l13.248,-46.128a17.298,17.298 0 0 1 22.266,-12.33z" fill="#bd3f3a" id="svg_82"/>
    <path d="m678.442,254.025a3.983,3.983 0 0 1 -1.1,-0.156l-92.281,-26.461a4,4 0 0 1 -2.743,-4.947l49.612,-173.027a22,22 0 0 1 27.211,-15.084l57.675,16.538a22,22 0 0 1 15.084,27.212l-49.615,173.027a4,4 0 0 1 -3.843,2.898zm-87.336,-33.2l84.594,24.252l48.511,-169.177a14,14 0 0 0 -9.6,-17.317l-57.675,-16.543a14,14 0 0 0 -17.317,9.6l-48.513,169.185z" fill="#330e00" id="svg_83"/>
    <rect x="532.15903" y="148.47958" width="96" height="66" transform="matrix(0.961 0.276 -0.276 0.961 151.783 -192.737)" fill="#a33500" id="svg_84"/>
    <path d="m696.635,190.582a3.99,3.99 0 0 1 -1.105,-0.156l-92.281,-26.461a4,4 0 0 1 -2.742,-4.948l18.193,-63.443a4,4 0 0 1 4.947,-2.743l92.282,26.461a4,4 0 0 1 2.742,4.948l-18.192,63.444a4,4 0 0 1 -3.844,2.898zm-87.336,-33.2l84.592,24.256l15.987,-55.753l-84.592,-24.256l-15.987,55.753z" fill="#330e00" id="svg_85"/>
    <rect x="761.96199" y="-13.193" width="96" height="66" fill="#6d2300" id="svg_86" transform="rotate(16 66.566 -487.265)"/>
    <path d="m678.442,254.025a3.946,3.946 0 0 1 -1.1,-0.156l-92.281,-26.461a4,4 0 0 1 -2.743,-4.947l18.193,-63.444a4,4 0 0 1 4.947,-2.743l92.281,26.462a4,4 0 0 1 2.743,4.948l-18.193,63.443a4,4 0 0 1 -3.847,2.898zm-87.336,-33.2l84.594,24.252l15.988,-55.753l-84.592,-24.257l-15.99,55.758z" fill="#330e00" id="svg_87"/>
    <path d="m584.626,325.63a12,12 0 0 1 -5.835,-22.5a12,12 0 1 1 5.835,22.5zm-0.023,-16.007a4.006,4.006 0 1 0 1.108,0.156a4.044,4.044 0 0 0 -1.111,-0.156l0.003,0z" fill="#330e00" id="svg_88"/>
    <rect x="568.135" y="31.62" width="96" height="308" rx="18" fill="#2d2d2d" stroke="#2d2d2d" stroke-linecap="round" stroke-linejoin="round" stroke-width="8" opacity="0.3" id="svg_89"/>
    <rect x="560.135" y="27.62" width="96" height="308" rx="18" fill="#fff" id="svg_90"/>
    <path d="m638.135,339.62l-60,0a22.025,22.025 0 0 1 -22,-22l0,-272a22.025,22.025 0 0 1 22,-22l60,0a22.025,22.025 0 0 1 22,22l0,272a22.025,22.025 0 0 1 -22,22zm-60,-308a14.015,14.015 0 0 0 -14,14l0,272a14.015,14.015 0 0 0 14,14l60,0a14.016,14.016 0 0 0 14,-14l0,-272a14.016,14.016 0 0 0 -14,-14l-60,0z" fill="#330e00" id="svg_91"/>
    <path d="m656.135,229.62l-96,0a4,4 0 0 1 -4,-4l0,-180a22.025,22.025 0 0 1 22,-22l60,0a22.025,22.025 0 0 1 22,22l0,180a4,4 0 0 1 -4,4zm-92,-8l88,0l0,-176a14.016,14.016 0 0 0 -14,-14l-60,0a14.015,14.015 0 0 0 -14,14l0,176z" fill="#330e00" id="svg_92"/>
    <path d="m578.135,27.62l60,0a18,18 0 0 1 18,18l0,48a0,0 0 0 1 0,0l-96,0a0,0 0 0 1 0,0l0,-48a18,18 0 0 1 18,-18z" fill="#f99" id="svg_93"/>
    <path d="m656.135,97.621l-96,0a4,4 0 0 1 -4,-4l0,-48a22.025,22.025 0 0 1 22,-22l60,0a22.025,22.025 0 0 1 22,22l0,48a4,4 0 0 1 -4,4zm-92,-8l88,0l0,-44a14.016,14.016 0 0 0 -14,-14l-60,0a14.015,14.015 0 0 0 -14,14l0,44z" fill="#330e00" id="svg_94"/>
    <rect x="560.135" y="93.62" width="96" height="66" fill="red" id="svg_95"/>
    <rect x="560.135" y="93.62" width="96" height="66" stroke-width="8" stroke="#330e00" stroke-linecap="round" stroke-linejoin="round" fill="#f33" id="svg_96"/>
    <rect x="560.135" y="159.62" width="96" height="66" fill="#bf0000" id="svg_97"/>
    <path d="m656.135,229.62l-96,0a4,4 0 0 1 -4,-4l0,-66a4,4 0 0 1 4,-4l96,0a4,4 0 0 1 4,4l0,66a4,4 0 0 1 -4,4zm-92,-8l88,0l0,-58l-88,0l0,58z" fill="#330e00" id="svg_98"/>
    <path d="m583.469,324.62a12,12 0 1 1 12,-12a12.013,12.013 0 0 1 -12,12zm0,-16a4,4 0 1 0 4,4a4,4 0 0 0 -4,-4z" fill="#330e00" id="svg_99"/>
   </g>
  </g>
 </g>

</svg>